<svg xmlns="http://www.w3.org/2000/svg" width="64" height="64" viewBox="0 0 64 64">
  <defs>
    <linearGradient id="g" x1="0" y1="0" x2="1" y2="1">
      <stop offset="0%" stop-color="#0d6efd"/>
      <stop offset="100%" stop-color="#6610f2"/>
    </linearGradient>
  </defs>
  <rect x="2" y="2" width="60" height="60" rx="12" fill="url(#g)"/>
  <g fill="#fff" transform="translate(12,12)">
    <path d="M20 0c3 0 6 1 8 3s3 5 3 8v2h3a2 2 0 1 1 0 4h-3v10a2 2 0 1 1-4 0V17H10v10a2 2 0 1 1-4 0V17H3a2 2 0 1 1 0-4h3v-2c0-3 1-6 3-8s5-3 8-3zm0 4c-2 0-4 .8-5.3 2.2A7.5 7.5 0 0 0 12 11v2h16v-2c0-2-0.8-4-2.2-5.3A7.5 7.5 0 0 0 20 4z"/>
  </g>
</svg>
